<?xml version="1.0" standalone="no"?><!DOCTYPE svg PUBLIC "-//W3C//DTD SVG 1.1//EN" "http://www.w3.org/Graphics/SVG/1.1/DTD/svg11.dtd"><svg height="248" node-id="1" sillyvg="true" template-height="248" template-width="252" version="1.1" viewBox="0 0 252 248" width="252" xmlns="http://www.w3.org/2000/svg" xmlns:xlink="http://www.w3.org/1999/xlink"><defs node-id="124"></defs><path d="M 70.85 195.82 C 70.16 195.82 69.46 195.61 68.85 195.18 L 29.08 167.26 C 27.50 166.15 27.11 163.97 28.23 162.39 C 29.34 160.81 31.52 160.42 33.10 161.53 L 72.87 189.45 C 74.45 190.56 74.83 192.75 73.72 194.33 C 73.04 195.30 71.96 195.82 70.85 195.82 Z" fill="#b2b2b2" fill-rule="nonzero" node-id="126" stroke="none" target-height="35.39601" target-width="47.717003" target-x="27.115" target-y="160.423"></path><g node-id="398"><path d="M 2.37 161.47 C 2.37 165.32 5.52 168.47 9.37 168.47 L 87.98 168.47 C 91.83 168.47 94.98 165.32 94.98 161.47 L 94.98 161.00 C 94.98 157.15 91.83 154.00 87.98 154.00 L 9.37 154.00 C 5.52 154.00 2.37 157.15 2.37 161.00 L 2.37 161.47 Z" fill="#c7c7c7" fill-rule="nonzero" group-id="1" node-id="130" stroke="none" target-height="14.473007" target-width="92.606995" target-x="2.369" target-y="154"></path></g><path d="M 9.07 154.00 C 6.13 154.00 3.62 155.93 2.72 158.58 C 9.31 162.36 19.89 164.81 31.82 164.81 C 48.08 164.81 61.83 160.26 66.38 154.00 L 9.07 154.00 L 9.07 154.00 Z" fill="#dddddd" fill-rule="nonzero" node-id="133" stroke="none" target-height="10.811005" target-width="63.657997" target-x="2.721" target-y="153.998"></path><path d="M 11.32 155.47 C 22.66 155.23 35.12 155.23 46.75 155.25 C 49.33 155.23 51.92 155.23 54.51 155.23 C 68.64 155.23 90.47 161.59 93.54 153.31 C 99.76 136.55 99.99 114.05 94.50 102.55 C 90.37 93.91 68.64 99.68 54.51 99.46 C 51.92 99.46 49.33 99.46 46.78 99.46 C 35.12 99.68 18.83 95.85 15.00 101.59 C 5.42 114.05 5.14 149.29 11.32 155.47 C 13.13 157.28 11.32 155.47 11.32 155.47 Z" fill="#d984b6" fill-rule="nonzero" node-id="135" stroke="none" target-height="67.68199" target-width="94.845" target-x="5.141" target-y="93.91"></path><path d="M 70.35 98.43 C 64.85 98.93 59.25 99.53 54.51 99.46 L 46.78 99.46 C 35.12 99.68 18.83 95.85 15.00 101.60 C 5.42 114.05 5.14 149.29 11.32 155.47 C 22.66 155.23 35.12 155.23 46.75 155.25 C 49.01 155.23 59.36 155.23 61.63 155.23 C 73.24 145.19 72.52 130.33 72.52 113.72 C 72.52 108.41 71.75 103.28 70.35 98.43 Z M 12.00 156.15 C 12.19 156.34 12.13 156.28 12.00 156.15 L 12.00 156.15 Z" fill="#f0a8d3" fill-rule="nonzero" node-id="137" stroke="none" target-height="60.487015" target-width="68.101" target-x="5.141" target-y="95.84999"></path><path d="M 65.77 110.63 C 65.77 106.59 65.10 102.70 63.87 99.02 C 60.57 99.30 57.38 99.50 54.51 99.46 L 46.78 99.46 C 35.12 99.68 18.83 95.85 15.00 101.60 C 7.24 111.68 5.59 136.73 8.52 149.16 C 12.52 150.22 16.75 150.80 21.14 150.80 C 45.78 150.79 65.77 132.81 65.77 110.63 Z" fill="#ffbae3" fill-rule="nonzero" node-id="139" stroke="none" target-height="54.946" target-width="60.182" target-x="5.5850005" target-y="95.851"></path><g node-id="399"><path d="M 11.83 107.25 L 72.14 107.25 L 97.80 114.73 L 96.02 102.10 L 16.85 97.79 C 16.85 97.79 13.00 104.10 11.83 107.25 Z" fill="#a16287" fill-opacity="0.26" fill-rule="nonzero" group-id="2" node-id="143" stroke="none" target-height="16.938004" target-width="85.96199" target-x="11.834" target-y="97.792"></path></g><g node-id="400"><path d="M 96.95 97.44 L 73.33 91.69 L 72.72 91.54 L 72.09 91.54 L 15.96 91.54 L 15.96 91.54 C 13.05 91.54 10.69 93.90 10.69 96.81 C 10.69 99.72 13.05 102.08 15.96 102.08 L 15.96 102.08 L 72.09 102.08 L 70.84 101.93 L 94.45 107.67 L 94.45 107.67 C 97.28 108.36 100.13 106.63 100.82 103.80 C 101.51 100.97 99.77 98.12 96.95 97.44 L 96.95 97.44 Z" fill="#f0a8d3" fill-rule="nonzero" group-id="3" node-id="148" stroke="none" target-height="16.822006" target-width="90.815" target-x="10.692" target-y="91.54"></path></g><path d="M 73.33 91.69 L 72.72 91.54 L 15.96 91.54 C 13.43 91.54 11.31 93.33 10.81 95.71 C 23.83 95.85 54.84 95.70 73.33 91.69 Z" fill="#ffbae3" fill-rule="nonzero" node-id="151" stroke="none" target-height="4.30999" target-width="62.524002" target-x="10.808" target-y="91.54"></path><g node-id="401"><path d="M 72.09 102.08 C 72.09 102.08 72.26 102.17 72.59 102.35 L 94.45 107.67 C 97.28 108.36 100.13 106.63 100.82 103.80 C 101.51 100.97 99.77 98.12 96.94 97.44 L 73.33 91.69 L 70.37 91.54 C 72.91 96.43 72.09 102.08 72.09 102.08 Z" fill="#5a3d1c" fill-opacity="0.23" fill-rule="nonzero" group-id="4" node-id="155" stroke="none" target-height="16.821" target-width="31.138" target-x="70.369" target-y="91.54"></path></g><g node-id="402"><path d="M 100.17 105.34 C 94.29 107.65 72.21 100.16 72.21 100.16 L 11.90 100.16 C 12.86 101.33 14.32 102.07 15.96 102.07 L 71.45 102.07 L 94.45 107.67 C 96.72 108.22 99.00 107.22 100.17 105.34 Z" fill="#5a452d" fill-opacity="0.2" fill-rule="nonzero" group-id="5" node-id="160" stroke="none" target-height="8.0660095" target-width="88.272995" target-x="11.896" target-y="100.15799"></path></g><g node-id="403"><path d="M 233.37 89.61 C 235.04 92.28 233.31 95.97 229.53 97.83 L 214.05 105.41 C 210.27 107.27 206.36 107.33 205.35 105.55 C 204.35 103.76 206.42 100.42 209.95 98.11 L 223.93 88.96 C 227.45 86.66 231.70 86.95 233.37 89.61 Z" fill="#787878" fill-rule="nonzero" group-id="6" node-id="165" stroke="none" target-height="20.669998" target-width="30.68901" target-x="204.355" target-y="86.656"></path></g><path d="M 230.60 87.63 L 230.60 87.63 C 231.77 87.95 232.75 88.62 233.37 89.61 C 235.04 92.28 233.31 95.97 229.53 97.83 L 221.86 101.59 C 220.52 100.61 219.67 99.85 219.67 99.85 C 232.14 94.92 230.60 87.63 230.60 87.63 Z" fill="#666666" fill-rule="nonzero" node-id="168" stroke="none" target-height="13.954002" target-width="15.369995" target-x="219.671" target-y="87.632996"></path><path d="M 220.33 99.09 C 220.33 99.09 221.71 100.04 222.96 98.99 C 224.52 97.69 223.44 96.08 223.44 96.08 C 223.44 96.08 224.58 96.83 225.32 96.14 C 228.16 93.45 224.96 90.49 224.96 90.49 L 219.58 87.58 C 219.58 87.58 216.67 86.22 214.32 88.89 C 214.32 88.89 210.26 92.01 207.72 91.78 L 207.67 91.77 L 207.35 91.73 C 207.34 91.73 207.34 91.73 207.33 91.73 L 207.33 91.73 L 172.02 87.54 L 147.37 68.67 C 145.32 66.95 140.47 67.78 138.38 69.80 C 136.30 71.81 136.26 74.84 138.30 76.56 L 138.30 76.56 L 165.50 95.70 C 166.31 96.38 167.37 96.78 168.51 96.84 L 207.46 99.27 C 208.30 99.31 209.12 99.17 209.87 98.88 L 209.87 98.88 L 209.88 98.88 C 210.11 98.79 210.34 98.69 210.56 98.57 C 211.99 97.98 215.78 96.51 216.51 98.38 C 216.51 98.38 218.18 101.31 219.80 100.68 C 221.41 100.04 220.45 99.18 220.45 99.18" fill="#f7c8b6" fill-rule="nonzero" node-id="170" stroke="none" target-height="34.365005" target-width="91.897995" target-x="136.261" target-y="66.948"></path><g node-id="404"><path d="M 160.11 192.31 L 144.97 132.26 C 145.79 135.50 148.70 137.78 152.05 137.78 L 111.48 137.78 C 109.23 137.78 107.10 136.74 105.72 134.96 C 104.33 133.19 103.84 130.87 104.39 128.69 L 121.16 62.15 L 121.16 62.15 C 122.15 58.24 126.12 55.87 130.03 56.85 C 133.94 57.84 136.31 61.81 135.33 65.72 L 135.33 65.72 L 118.56 132.26 C 119.11 130.08 118.62 127.76 117.24 125.99 C 115.85 124.21 113.73 123.17 111.48 123.17 L 150.13 123.17 C 153.48 123.17 156.40 125.45 157.22 128.69 L 175.21 188.94 L 174.28 188.74 C 175.26 192.65 172.89 196.62 168.98 197.61 C 165.07 198.59 161.10 196.22 160.11 192.31 L 160.11 192.31 Z" fill="#047391" fill-rule="nonzero" group-id="7" node-id="174" stroke="none" target-height="142.71901" target-width="71.419" target-x="103.844" target-y="55.868"></path></g><path d="M 146.36 137.78 L 147.89 137.78 L 164.00 193.81 L 160.68 193.81 Z" fill="#03617a" fill-rule="nonzero" node-id="177" stroke="none" target-height="56.039" target-width="17.640991" target-x="146.358" target-y="137.775"></path><path d="M 158.05 192.14 C 158.05 196.37 160.71 197.87 169.55 197.87 C 178.39 197.87 187.80 197.33 187.80 193.10 C 187.80 188.88 178.83 184.49 169.99 184.49 C 161.15 184.49 158.05 187.91 158.05 192.14 Z" fill="#000000" fill-rule="nonzero" node-id="179" stroke="none" target-height="13.384979" target-width="29.75502" target-x="158.047" target-y="184.487"></path><g node-id="405"><path d="M 169.06 189.58 C 169.03 190.90 171.76 190.12 175.15 190.19 C 178.55 190.26 181.32 191.17 181.35 189.84 C 181.38 188.52 178.65 187.39 175.26 187.32 C 171.87 187.24 169.09 188.25 169.06 189.58 Z" fill="#b2b2b2" fill-opacity="0.44" fill-rule="nonzero" group-id="8" node-id="183" stroke="none" target-height="3.9219818" target-width="12.343002" target-x="169.034" target-y="187.24402"></path></g><path d="M 63.58 194.63 L 90.93 194.63 C 102.53 208.23 94.20 217.35 148.05 217.35 C 148.97 217.35 149.88 217.33 150.78 217.30 L 150.78 217.31 C 193.27 217.31 220.90 198.11 232.12 180.11 C 243.03 162.60 214.26 114.02 214.26 114.02 C 214.26 114.02 207.81 98.47 198.88 101.31 C 187.64 104.89 187.62 116.19 187.62 116.19 L 192.62 148.64 C 192.62 208.69 151.90 206.28 151.90 206.28 L 151.86 206.63 C 147.27 207.04 142.22 207.27 136.62 207.27 C 136.62 207.27 123.87 201.66 123.87 171.37 L 123.87 147.96 L 86.51 147.96 C 86.51 147.96 57.94 144.86 52.44 172.45 C 48.10 194.21 56.03 194.63 63.58 194.63" fill="#81c5e8" fill-rule="nonzero" node-id="186" stroke="none" target-height="118.87901" target-width="194.92801" target-x="48.105" target-y="98.468994"></path><path d="M 179.23 213.39 C 179.23 232.60 187.89 248.18 207.96 248.18 C 238.57 248.18 251.91 232.87 251.91 213.39 C 251.91 194.17 235.64 178.59 215.57 178.59 C 195.50 178.59 179.23 194.17 179.23 213.39 Z" fill="#4a4a4a" fill-rule="nonzero" node-id="188" stroke="none" target-height="69.58902" target-width="72.67998" target-x="179.22702" target-y="178.59299"></path><path d="M 63.85 189.48 L 91.20 189.48 C 102.81 203.09 94.48 212.20 148.33 212.20 C 149.25 212.20 150.15 212.18 151.06 212.15 L 151.06 212.16 C 193.55 212.16 221.18 192.97 232.40 174.97 C 233.78 172.76 234.24 170.06 234.49 167.03 C 234.85 172.15 234.51 176.69 232.40 180.07 C 221.18 198.08 193.55 217.27 151.06 217.27 L 151.06 217.26 C 150.15 217.29 149.25 217.31 148.33 217.31 C 94.48 217.31 102.81 208.20 91.20 194.59 L 63.85 194.59 C 57.35 194.59 50.57 194.27 51.60 180.24 C 52.45 189.25 58.25 189.48 63.85 189.48 Z" fill="#6fa9c7" fill-rule="nonzero" node-id="190" stroke="none" target-height="50.287003" target-width="184.281" target-x="50.568" target-y="167.025"></path><path d="M 238.21 216.99 C 238.21 234.21 224.66 248.18 207.96 248.18 C 191.25 248.18 177.70 234.21 177.70 216.99 C 177.70 199.76 191.25 185.79 207.96 185.79 C 224.66 185.79 238.21 199.76 238.21 216.99 Z" fill="#3f3f3f" fill-rule="nonzero" node-id="192" stroke="none" target-height="62.39003" target-width="60.503998" target-x="177.704" target-y="185.79097"></path><g node-id="406"><path d="M 222.55 214.81 C 222.55 224.13 215.36 231.69 206.49 231.69 C 197.62 231.69 190.43 224.13 190.43 214.81 C 190.43 205.49 197.62 197.93 206.49 197.93 C 215.36 197.93 222.55 205.49 222.55 214.81 Z" fill="#b2b2b2" fill-rule="nonzero" group-id="9" node-id="196" stroke="none" target-height="33.756027" target-width="32.115997" target-x="190.43001" target-y="197.92998"></path><path d="M 206.49 234.19 C 196.26 234.19 187.93 225.49 187.93 214.81 C 187.93 204.12 196.25 195.43 206.49 195.43 C 216.72 195.43 225.05 204.12 225.05 214.81 C 225.05 225.49 216.72 234.19 206.49 234.19 Z M 206.49 200.43 C 199.01 200.43 192.93 206.88 192.93 214.81 C 192.93 222.74 199.01 229.19 206.49 229.19 C 213.96 229.19 220.05 222.74 220.05 214.81 C 220.05 206.88 213.96 200.43 206.49 200.43 Z" fill="#d6d6d6" fill-rule="nonzero" group-id="9" node-id="198" stroke="none" target-height="38.756027" target-width="37.115997" target-x="187.93" target-y="195.43"></path></g><g node-id="407"><path d="M 219.98 135.12 C 219.98 135.12 234.67 166.41 226.37 179.18 C 218.06 191.95 192.53 191.31 198.27 172.15 C 204.02 153.00 199.35 138.07 197.95 133.52 C 196.56 128.97 205.93 138.95 219.98 135.12 Z" fill="#a8e0ff" fill-opacity="0.61" fill-rule="nonzero" group-id="10" node-id="203" stroke="none" target-height="62.97499" target-width="42.141006" target-x="192.526" target-y="128.972"></path></g><g node-id="408"><path d="M 218.70 146.93 C 218.70 146.93 227.85 158.93 222.85 175.98 C 220.24 184.91 213.92 183.30 213.92 163.12 C 213.92 129.78 220.30 152.04 218.70 146.93 Z" fill="#ffffff" fill-opacity="0.31" fill-rule="nonzero" group-id="11" node-id="208" stroke="none" target-height="55.13098" target-width="13.938995" target-x="213.916" target-y="129.781"></path></g><path d="M 57.24 213.66 C 57.24 232.88 65.90 248.45 85.97 248.45 C 120.57 248.45 129.92 232.88 129.92 213.66 C 129.92 194.44 113.65 178.86 93.58 178.86 C 73.51 178.86 57.24 194.44 57.24 213.66 Z" fill="#4a4a4a" fill-rule="nonzero" node-id="211" stroke="none" target-height="69.59" target-width="72.68101" target-x="57.238" target-y="178.863"></path><path d="M 116.22 217.26 C 116.22 234.49 102.67 248.45 85.97 248.45 C 69.26 248.45 55.71 234.49 55.71 217.26 C 55.71 200.03 69.26 186.06 85.97 186.06 C 102.67 186.06 116.22 200.03 116.22 217.26 Z" fill="#3f3f3f" fill-rule="nonzero" node-id="213" stroke="none" target-height="62.389984" target-width="60.503994" target-x="55.71401" target-y="186.06201"></path><path d="M 70.76 154.08 C 67.88 158.38 58.72 174.31 76.32 180.77 C 89.40 185.58 67.40 199.42 54.25 192.40 C 51.36 189.84 50.08 184.32 52.44 172.45 C 54.27 163.25 58.67 157.48 63.71 153.85 L 71.53 153.00 C 71.53 153.00 71.23 153.39 70.76 154.08 Z" fill="#6fa9c7" fill-rule="nonzero" node-id="215" stroke="none" target-height="46.417984" target-width="39.32501" target-x="50.076" target-y="152.998"></path><path d="M 205.62 218.97 C 203.95 218.97 202.31 218.14 201.37 216.61 L 189.87 198.09 C 188.42 195.75 189.14 192.66 191.49 191.21 C 193.83 189.75 196.91 190.47 198.37 192.82 L 209.86 211.34 C 211.32 213.68 210.60 216.77 208.25 218.22 C 207.43 218.73 206.52 218.97 205.62 218.97 Z" fill="#3f3f3f" fill-rule="nonzero" node-id="217" stroke="none" target-height="29.225006" target-width="22.899963" target-x="188.41801" target-y="189.75"></path><g node-id="409"><path d="M 246.02 194.41 C 246.02 194.41 246.53 205.99 222.85 205.99 C 199.18 205.99 195.60 245.46 185.23 237.56 C 181.18 234.48 168.90 198.97 189.01 190.03 C 209.12 181.09 246.02 194.41 246.02 194.41 Z" fill="#000000" fill-opacity="0.16" fill-rule="nonzero" group-id="12" node-id="221" stroke="none" target-height="64.369995" target-width="77.63002" target-x="168.9" target-y="181.091"></path></g><g node-id="410"><path d="M 100.56 215.08 C 100.56 224.40 93.37 231.96 84.50 231.96 C 75.63 231.96 68.44 224.40 68.44 215.08 C 68.44 205.76 75.63 198.20 84.50 198.20 C 93.37 198.20 100.56 205.76 100.56 215.08 Z" fill="#b2b2b2" fill-rule="nonzero" group-id="13" node-id="226" stroke="none" target-height="33.755997" target-width="32.11599" target-x="68.441" target-y="198.20099"></path><path d="M 84.50 234.46 C 74.27 234.46 65.94 225.77 65.94 215.08 C 65.94 204.39 74.27 195.70 84.50 195.70 C 94.73 195.70 103.06 204.39 103.06 215.08 C 103.06 225.76 94.73 234.46 84.50 234.46 Z M 84.50 200.70 C 77.02 200.70 70.94 207.15 70.94 215.08 C 70.94 223.01 77.02 229.46 84.50 229.46 C 91.97 229.46 98.06 223.01 98.06 215.08 C 98.06 207.15 91.97 200.70 84.50 200.70 Z" fill="#d6d6d6" fill-rule="nonzero" group-id="13" node-id="228" stroke="none" target-height="38.755997" target-width="37.115997" target-x="65.941" target-y="195.701"></path></g><path d="M 50.39 217.35 C 50.39 191.06 70.26 169.74 94.77 169.74 C 119.27 169.74 139.14 191.06 139.14 217.35 L 50.39 217.35 Z" fill="#6fa9c7" fill-rule="nonzero" node-id="231" stroke="none" target-height="47.604004" target-width="88.748" target-x="50.393" target-y="169.744"></path><path d="M 179.94 230.45 C 163.81 219.81 176.06 185.03 194.76 177.03 C 194.76 177.03 219.21 162.02 241.21 177.05 C 263.20 192.09 225.47 198.49 214.48 200.32 C 194.44 203.67 185.97 234.42 179.94 230.45 Z" fill="#81c5e8" fill-rule="nonzero" node-id="233" stroke="none" target-height="72.403" target-width="99.384" target-x="163.815" target-y="162.02"></path><g node-id="411"><path d="M 51.75 152.15 C 51.75 156.92 56.25 160.81 61.75 160.81 L 118.02 160.81 C 123.52 160.81 128.02 156.92 128.02 152.15 C 128.02 147.38 123.52 143.48 118.02 143.48 L 61.75 143.48 C 56.25 143.48 51.75 147.38 51.75 152.15 Z" fill="#e38686" fill-rule="nonzero" group-id="14" node-id="237" stroke="none" target-height="17.337006" target-width="76.27699" target-x="51.746" target-y="143.478"></path></g><g node-id="412"><path d="M 118.02 143.48 L 61.75 143.48 C 56.25 143.48 51.75 147.38 51.75 152.15 C 51.75 156.92 56.25 160.82 61.75 160.82 L 118.02 160.82 C 123.52 160.82 128.02 156.92 128.02 152.15 C 128.02 147.38 123.52 143.48 118.02 143.48 Z M 114.20 155.13 L 64.93 155.13 C 59.43 155.13 54.93 152.54 54.93 149.36 C 54.93 146.19 59.43 143.59 64.93 143.59 L 114.20 143.59 C 119.71 143.59 124.20 146.19 124.20 149.36 C 124.20 152.54 119.71 155.13 114.20 155.13 Z" fill="#a86666" fill-opacity="0.61" fill-rule="nonzero" group-id="15" node-id="242" stroke="none" target-height="17.33699" target-width="76.278" target-x="51.746" target-y="143.479"></path></g><g node-id="413"><path d="M 142.06 200.73 L 127.72 140.68 C 128.49 143.93 131.25 146.20 134.42 146.20 L 96.02 146.20 C 93.89 146.20 91.88 145.16 90.57 143.38 C 89.25 141.61 88.80 139.29 89.31 137.11 L 105.19 74.41 L 107.10 71.53 C 108.04 67.62 109.88 68.12 113.58 69.11 C 117.28 70.09 119.53 70.23 118.59 74.14 L 118.59 74.14 L 102.72 140.68 C 103.24 138.50 102.78 136.19 101.47 134.41 C 100.16 132.63 98.15 131.60 96.02 131.60 L 133.46 131.60 C 136.63 131.60 139.39 133.87 140.16 137.12 L 157.41 197.16 L 155.46 197.16 C 156.39 201.07 154.15 205.04 150.45 206.03 C 146.75 207.01 142.99 204.64 142.06 200.73 L 142.06 200.73 Z" fill="#047391" fill-rule="nonzero" group-id="16" node-id="247" stroke="none" target-height="139.39098" target-width="68.611" target-x="88.795006" target-y="67.621"></path></g><path d="M 129.04 146.20 L 130.43 146.20 L 145.12 197.85 L 141.37 197.85 Z" fill="#03617a" fill-rule="nonzero" node-id="250" stroke="none" target-height="51.650986" target-width="16.082" target-x="129.036" target-y="146.201"></path><path d="M 139.15 203.21 C 139.93 207.36 142.83 208.35 151.51 206.70 C 160.20 205.05 169.35 202.76 168.56 198.61 C 167.77 194.46 158.14 191.82 149.46 193.46 C 140.78 195.11 138.36 199.06 139.15 203.21 Z" fill="#000000" fill-rule="nonzero" node-id="252" stroke="none" target-height="16.526993" target-width="30.985992" target-x="138.36" target-y="191.819"></path><path d="M 179.53 112.55 C 179.53 123.45 193.73 130.33 206.63 130.33 C 219.53 130.33 220.72 121.49 220.72 110.58 C 220.72 99.67 218.25 90.83 205.35 90.83 C 192.45 90.83 179.53 101.64 179.53 112.55 Z" fill="#c7c7c7" fill-rule="nonzero" node-id="254" stroke="none" target-height="39.493004" target-width="41.192978" target-x="179.529" target-y="90.833"></path><path d="M 202.85 124.05 C 207.31 124.05 214.60 126.31 218.32 124.87 C 216.37 128.25 212.88 130.33 206.63 130.33 C 193.73 130.33 179.53 123.45 179.53 112.55 C 179.53 112.29 179.54 112.03 179.56 111.77 C 180.75 122.60 190.25 124.05 202.85 124.05 Z" fill="#a1a1a1" fill-rule="nonzero" node-id="256" stroke="none" target-height="18.55101" target-width="38.793" target-x="179.529" target-y="111.774994"></path><path d="M 189.97 112.77 C 189.97 102.34 197.34 93.56 207.38 90.92 C 218.50 91.82 220.72 100.28 220.72 110.58 C 220.72 121.49 219.53 130.33 206.62 130.33 C 203.53 130.33 200.35 129.93 197.32 129.17 C 192.79 125.04 189.97 119.22 189.97 112.77 Z" fill="#a1a1a1" fill-rule="nonzero" node-id="258" stroke="none" target-height="39.408005" target-width="30.749023" target-x="189.97098" target-y="90.918"></path><g node-id="414"><path d="M 160.88 128.53 C 162.32 131.42 166.61 131.97 170.41 129.74 L 184.65 121.40 C 188.44 119.17 190.71 115.85 189.68 114.02 C 188.65 112.18 184.50 112.09 180.45 113.82 L 165.61 120.14 C 161.56 121.86 159.43 125.64 160.88 128.53 Z" fill="#666666" fill-rule="nonzero" group-id="17" node-id="262" stroke="none" target-height="19.874992" target-width="31.274994" target-x="159.434" target-y="112.092"></path></g><path d="M 147.66 88.52 C 141.93 83.46 140.12 76.64 143.63 73.28 C 147.14 69.92 154.64 71.30 160.37 76.36 L 167.48 82.63 L 157.40 96.37 L 147.66 88.52 Z" fill="#e66c6c" fill-rule="nonzero" node-id="265" stroke="none" target-height="26.445007" target-width="27.362" target-x="140.118" target-y="69.922"></path><path d="M 150.11 85.51 C 144.09 80.12 141.71 73.41 144.77 70.53 C 147.85 67.64 155.21 69.67 161.23 75.07 L 168.69 81.75 L 159.19 93.93 L 150.11 85.51 Z" fill="#ff7878" fill-rule="nonzero" node-id="267" stroke="none" target-height="26.287003" target-width="26.98201" target-x="141.706" target-y="67.64"></path><path d="M 228.09 110.50 C 228.09 121.41 219.99 130.25 209.99 130.25 C 199.99 130.25 191.89 121.41 191.89 110.50 C 191.89 105.27 193.80 100.24 197.19 96.54 C 200.59 92.84 205.19 90.76 209.99 90.76 C 214.79 90.76 219.40 92.84 222.79 96.54 C 226.19 100.24 228.09 105.27 228.09 110.50 Z" fill="#dddddd" fill-rule="nonzero" node-id="269" stroke="none" target-height="39.493996" target-width="36.20401" target-x="191.88899" target-y="90.756996"></path><path d="M 100.08 82.02 L 91.16 124.68 L 137.46 132.20 L 151.44 65.37 L 124.14 60.94 C 124.15 60.94 105.21 57.49 100.08 82.02 Z" fill="#e66c6c" fill-rule="nonzero" node-id="271" stroke="none" target-height="74.713" target-width="60.278008" target-x="91.158" target-y="57.491"></path><path d="M 160.74 124.75 C 161.39 122.94 163.01 121.24 165.30 120.27 L 180.76 113.68 C 184.64 112.03 188.65 112.18 189.68 114.02 C 189.90 114.41 189.97 114.88 189.91 115.38 C 186.12 118.82 180.72 121.74 174.41 123.43 C 169.61 124.71 160.74 128.24 160.74 124.75 Z" fill="#787878" fill-rule="nonzero" node-id="273" stroke="none" target-height="16.209015" target-width="29.235" target-x="160.735" target-y="112.03299"></path><path d="M 165.63 120.13 C 165.63 120.13 168.10 119.89 168.10 122.59 C 168.10 125.30 170.82 128.01 174.25 126.26 C 177.68 124.50 180.47 121.31 175.04 115.88 C 169.62 110.46 165.63 120.13 165.63 120.13 Z" fill="#666666" fill-rule="nonzero" node-id="275" stroke="none" target-height="17.558998" target-width="14.840027" target-x="165.633" target-y="110.456"></path><path d="M 109.61 82.41 L 101.12 126.01 L 137.88 132.56 L 151.19 64.16 L 127.83 60.88 C 127.83 60.88 114.50 58.26 109.61 82.41 Z" fill="#ff7878" fill-rule="nonzero" node-id="277" stroke="none" target-height="74.30501" target-width="50.07399" target-x="101.115005" target-y="58.26"></path><g node-id="415"><path d="M 148.57 77.60 L 132.13 131.59 L 137.88 132.56 Z" fill="#ffffff" fill-opacity="0.18" fill-rule="nonzero" group-id="18" node-id="281" stroke="none" target-height="54.962997" target-width="16.446" target-x="132.129" target-y="77.601"></path></g><path d="M 122.92 97.69 L 130.20 110.07 L 141.25 115.25 L 142.21 110.31 L 127.37 94.50 Z" fill="#e66c6c" fill-rule="nonzero" node-id="284" stroke="none" target-height="20.754005" target-width="19.287003" target-x="122.922" target-y="94.499"></path><path d="M 119.92 72.24 C 122.60 71.13 127.42 72.13 128.69 74.47 L 140.40 99.05 L 163.91 112.25 C 163.91 112.25 163.92 112.25 163.92 112.25 L 164.20 112.41 L 164.25 112.44 C 166.53 113.58 171.45 112.16 171.45 112.16 C 174.61 110.54 176.82 112.86 176.82 112.86 C 176.82 112.86 183.95 120.45 179.03 122.92 C 178.40 123.24 177.78 123.17 177.67 122.71 C 177.36 121.37 176.59 118.88 174.82 116.74 C 174.82 116.74 177.02 119.75 177.31 123.08 C 177.20 123.66 176.84 124.37 175.80 124.72 C 174.75 125.07 173.96 124.94 173.75 124.44 C 173.53 122.96 173.00 120.09 172.11 118.77 C 172.11 118.77 173.16 120.55 173.26 124.39 C 173.26 124.92 172.98 125.55 171.65 125.50 C 169.75 125.44 170.02 121.80 170.02 121.80 C 169.38 119.15 167.18 120.09 165.64 120.13 C 165.39 120.15 165.64 120.13 163.66 119.83 C 163.66 119.83 163.65 119.83 163.65 119.83 L 163.65 119.83 C 162.85 119.83 162.03 119.66 161.27 119.32 L 133.73 106.42 C 132.68 105.95 131.84 105.19 131.34 104.26 L 117.37 78.50 L 117.37 78.50 C 116.10 76.16 117.24 73.36 119.92 72.24 Z" fill="#f7c8b6" fill-rule="nonzero" node-id="286" stroke="none" target-height="54.419" target-width="67.847984" target-x="116.102" target-y="71.131"></path><path d="M 116.84 64.89 C 116.84 64.89 106.49 74.06 119.11 101.97 L 135.43 88.62 L 136.46 86.39 L 116.84 64.89 Z" fill="#e66c6c" fill-rule="nonzero" node-id="288" stroke="none" target-height="37.08" target-width="29.977005" target-x="106.48599" target-y="64.888"></path><path d="M 116.02 83.18 C 112.93 76.18 114.15 69.23 118.74 67.65 C 123.33 66.08 129.56 70.47 132.65 77.47 L 136.48 86.14 L 121.57 94.39 L 116.02 83.18 Z" fill="#ff7878" fill-rule="nonzero" node-id="290" stroke="none" target-height="28.311012" target-width="23.553993" target-x="112.92701" target-y="66.076"></path><path d="M 157.62 71.60 C 157.62 71.60 136.90 93.94 115.01 62.60 L 121.28 56.34 L 154.35 68.34 L 157.62 71.60 Z" fill="#e66c6c" fill-rule="nonzero" node-id="292" stroke="none" target-height="37.599007" target-width="42.601997" target-x="115.014" target-y="56.336"></path><path d="M 113.08 35.50 C 110.92 51.77 113.52 68.93 136.84 74.50 C 162.45 80.61 165.55 60.01 166.79 47.07 C 168.37 30.73 165.21 11.33 136.74 9.34 C 123.38 8.41 115.48 17.34 113.08 35.50 Z" fill="#f7c8b6" fill-rule="nonzero" node-id="294" stroke="none" target-height="72.2" target-width="57.449005" target-x="110.922" target-y="8.411"></path><g node-id="416"><path d="M 140.40 70.68 C 119.51 65.69 117.58 48.69 119.91 32.46 C 121.44 21.71 124.66 14.17 129.53 9.93 C 120.50 12.26 115.01 20.89 113.08 35.50 C 110.92 51.77 113.52 68.93 136.84 74.50 C 156.63 79.22 162.97 68.00 165.41 56.68 C 162.35 66.28 155.82 74.36 140.40 70.68 Z" fill="#5a3d1c" fill-opacity="0.05" fill-rule="nonzero" group-id="19" node-id="298" stroke="none" target-height="69.293" target-width="54.488007" target-x="110.922" target-y="9.928"></path></g><path d="M 113.34 17.15 C 122.75 -10.04 168.82 4.30 169.53 23.69 C 170.23 43.08 147.31 32.12 147.31 32.12 C 147.31 32.12 141.40 31.22 133.15 36.29 C 131.72 37.18 131.14 38.72 128.04 35.96 C 124.85 33.12 122.08 33.62 119.86 36.64 C 119.38 36.35 118.86 36.06 118.30 35.74 C 115.48 34.18 112.47 36.83 112.47 41.26 C 112.47 44.40 113.78 48.36 115.69 50.42 C 115.37 56.59 116.70 61.42 116.70 61.42 C 111.17 64.69 105.33 40.29 113.34 17.15 Z" fill="#91632d" fill-rule="nonzero" node-id="301" stroke="none" target-height="74.721" target-width="64.903" target-x="105.328995" target-y="-10.036"></path><path d="M 162.93 47.05 C 162.93 51.83 159.05 55.71 154.26 55.71 C 149.48 55.71 145.60 51.83 145.60 47.05 C 145.60 42.26 149.48 38.38 154.26 38.38 C 159.05 38.38 162.93 42.26 162.93 47.05 Z" fill="#ffffff" fill-rule="nonzero" node-id="303" stroke="none" target-height="17.323997" target-width="17.324005" target-x="145.601" target-y="38.384003"></path><path d="M 142.90 43.20 C 142.90 47.98 139.02 51.86 134.24 51.86 C 129.45 51.86 125.57 47.98 125.57 43.20 C 125.57 38.42 129.45 34.54 134.24 34.54 C 139.02 34.54 142.90 38.42 142.90 43.20 Z" fill="#ffffff" fill-rule="nonzero" node-id="305" stroke="none" target-height="17.323997" target-width="17.324005" target-x="125.573" target-y="34.538002"></path><g node-id="417"><path d="M 167.62 47.52 C 167.62 47.52 162.65 43.53 156.84 44.95 C 151.04 46.36 135.35 50.88 123.88 39.88 C 114.47 30.85 109.71 34.39 109.71 34.39 C 109.71 34.39 113.70 16.29 116.38 16.92 C 119.05 17.56 171.55 37.85 167.62 47.52 Z" fill="#5a3d1c" fill-opacity="0.08" fill-rule="nonzero" group-id="20" node-id="309" stroke="none" target-height="34.598" target-width="61.836998" target-x="109.712" target-y="16.285"></path></g><path d="M 137.69 43.42 C 137.69 44.26 137.35 45.07 136.76 45.67 C 136.16 46.26 135.35 46.59 134.51 46.59 C 133.67 46.59 132.86 46.26 132.27 45.67 C 131.67 45.07 131.34 44.26 131.34 43.42 C 131.34 42.58 131.67 41.77 132.27 41.18 C 132.86 40.58 133.67 40.25 134.51 40.25 C 135.35 40.25 136.16 40.58 136.76 41.18 C 137.35 41.77 137.69 42.58 137.69 43.42 Z" fill="#000000" fill-rule="nonzero" node-id="312" stroke="none" target-height="6.3460007" target-width="6.3460083" target-x="131.34" target-y="40.249"></path><path d="M 174.20 42.60 L 168.95 34.22 C 166.50 29.77 158.64 25.56 142.99 25.13 C 127.33 24.70 117.25 27.75 117.25 27.75 C 117.25 27.75 130.94 44.97 144.87 43.92 C 164.38 42.44 160.34 44.31 167.62 47.52 C 167.62 47.52 175.26 50.85 174.20 42.60 Z" fill="#e0aa5a" fill-rule="nonzero" node-id="314" stroke="none" target-height="26.152" target-width="58.016" target-x="117.245" target-y="24.695"></path><path d="M 154.71 27.67 C 139.76 23.91 132.03 29.51 118.91 27.64 C 116.43 27.90 110.61 28.84 110.30 26.98 L 110.30 26.98 C 110.68 19.34 114.01 8.98 122.93 4.94 C 130.40 1.55 136.52 -0.84 144.92 0.28 C 154.22 1.52 160.97 3.57 165.50 9.02 C 170.02 14.47 172.91 21.75 169.78 34.88 C 165.25 31.24 160.43 29.11 154.71 27.67 Z" fill="#ffcc66" fill-rule="nonzero" node-id="316" stroke="none" target-height="35.725998" target-width="62.611" target-x="110.301" target-y="-0.843"></path><path d="M 169.66 34.05 C 170.39 35.25 161.34 23.98 148.53 25.51 C 132.46 27.43 120.52 28.32 120.52 28.32 C 120.52 28.32 135.32 42.37 147.95 41.74 C 165.65 40.86 162.01 42.35 168.68 45.17 C 168.68 45.17 175.59 48.94 174.06 41.87 C 174.06 41.87 173.25 37.30 169.66 34.00" fill="#ffcc66" fill-rule="nonzero" node-id="318" stroke="none" target-height="24.963995" target-width="55.071" target-x="120.519" target-y="23.976"></path><path d="M 182.79 201.04 C 182.79 216.60 188.91 196.25 222.56 193.26 C 226.52 192.91 243.98 191.22 246.40 188.80 C 242.57 196.70 220.16 199.38 214.48 200.32 C 194.44 203.67 185.97 234.43 179.94 230.45 C 163.81 219.81 176.06 185.03 194.76 177.03 C 194.76 177.03 182.79 185.48 182.79 201.04 Z" fill="#6fa9c7" fill-rule="nonzero" node-id="320" stroke="none" target-height="57.392" target-width="82.584" target-x="163.815" target-y="177.033"></path><path d="M 64.82 189.71 C 64.82 199.67 87.89 209.19 102.18 209.19 C 116.46 209.19 128.68 209.89 128.68 199.93 C 128.68 189.96 112.63 167.37 98.35 167.37 C 84.06 167.37 64.82 179.75 64.82 189.71 Z" fill="#81c5e8" fill-rule="nonzero" node-id="322" stroke="none" target-height="42.524994" target-width="63.852005" target-x="64.823" target-y="167.365"></path><g node-id="418"><path d="M 113.67 194.02 C 116.07 192.22 115.61 187.56 112.65 183.61 C 109.69 179.66 105.34 177.92 102.95 179.72 C 100.55 181.52 102.92 185.22 105.88 189.17 C 108.84 193.12 111.27 195.82 113.67 194.02 Z" fill="#ffffff" fill-opacity="0.38" fill-rule="nonzero" group-id="21" node-id="326" stroke="none" target-height="17.899017" target-width="15.522003" target-x="100.546" target-y="177.92"></path></g><g node-id="419"><path d="M 211.07 178.46 C 209.50 180.79 214.29 182.35 221.12 183.87 C 227.94 185.40 234.22 186.31 235.78 183.98 C 237.34 181.64 233.08 178.51 226.25 176.99 C 219.42 175.46 212.62 176.12 211.07 178.46 Z" fill="#ffffff" fill-opacity="0.38" fill-rule="nonzero" group-id="22" node-id="331" stroke="none" target-height="10.853012" target-width="27.840012" target-x="209.50398" target-y="175.458"></path></g><path d="M 223.74 109.98 C 223.74 113.97 222.29 117.80 219.71 120.62 C 217.12 123.44 213.62 125.02 209.96 125.02 C 206.30 125.02 202.80 123.44 200.21 120.62 C 197.63 117.80 196.17 113.97 196.17 109.98 C 196.17 106.00 197.63 102.17 200.21 99.35 C 202.80 96.53 206.30 94.95 209.96 94.95 C 213.62 94.95 217.12 96.53 219.71 99.35 C 222.29 102.17 223.74 106.00 223.74 109.98 Z" fill="#d7f1f7" fill-rule="nonzero" node-id="334" stroke="none" target-height="30.073997" target-width="27.570023" target-x="196.17398" target-y="94.947"></path><g node-id="420"><path d="M 220.68 116.96 C 220.68 108.17 213.76 100.15 208.45 105.47 C 203.78 110.14 197.60 103.36 197.60 103.36 C 199.84 98.38 204.53 94.95 209.96 94.95 C 217.57 94.95 223.74 101.68 223.74 109.98 C 223.74 113.71 222.49 117.12 220.43 119.75 C 220.58 118.84 220.68 117.92 220.68 116.96 Z" fill="#ffffff" fill-opacity="0.5" fill-rule="nonzero" group-id="23" node-id="338" stroke="none" target-height="24.798004" target-width="26.144989" target-x="197.598" target-y="94.949"></path></g><path d="M 157.08 47.91 C 157.08 48.75 156.75 49.56 156.15 50.15 C 155.56 50.75 154.75 51.08 153.91 51.08 C 153.07 51.08 152.26 50.75 151.67 50.15 C 151.07 49.56 150.74 48.75 150.74 47.91 C 150.74 47.07 151.07 46.26 151.67 45.67 C 152.26 45.07 153.07 44.74 153.91 44.74 C 154.75 44.74 155.56 45.07 156.15 45.67 C 156.75 46.26 157.08 47.07 157.08 47.91 Z" fill="#000000" fill-rule="nonzero" node-id="341" stroke="none" target-height="6.3460007" target-width="6.3460083" target-x="150.736" target-y="44.736"></path><path d="M 152.79 63.95 C 152.79 63.95 139.99 67.81 133.40 59.76 C 133.40 59.76 141.54 81.31 152.79 63.95 Z" fill="#993f3f" fill-rule="nonzero" node-id="343" stroke="none" target-height="21.553997" target-width="19.395004" target-x="133.4" target-y="59.761005"></path><g node-id="421"><path d="M 122.93 4.94 C 125.93 3.58 128.71 2.39 131.51 1.51 C 130.57 3.91 130.05 6.44 130.05 9.07 C 130.05 15.80 133.39 21.95 138.87 26.63 C 132.38 27.28 126.56 28.73 118.91 27.64 C 116.43 27.90 110.61 28.84 110.30 26.98 C 110.68 19.34 114.01 8.98 122.93 4.94 Z" fill="#e0aa5a" fill-opacity="0.48" fill-rule="nonzero" group-id="24" node-id="347" stroke="none" target-height="27.334" target-width="28.570992" target-x="110.301" target-y="1.511"></path></g><g node-id="422"><path d="M 152.79 63.95 C 152.22 64.84 151.65 65.60 151.09 66.30 C 146.90 67.81 138.76 69.39 134.08 61.31 C 133.64 60.38 133.40 59.76 133.40 59.76 C 139.99 67.81 152.79 63.95 152.79 63.95 Z" fill="#000000" fill-opacity="0.28" fill-rule="nonzero" group-id="25" node-id="352" stroke="none" target-height="9.626995" target-width="19.395004" target-x="133.4" target-y="59.761005"></path></g><g node-id="423"><path d="M 92.95 124.97 L 136.90 135.60 L 137.88 132.56 Z" fill="#000000" fill-opacity="0.1" fill-rule="nonzero" group-id="26" node-id="357" stroke="none" target-height="10.625015" target-width="44.933" target-x="92.946" target-y="124.97299"></path></g><g node-id="424"><path d="M 150.38 198.24 C 150.35 199.56 153.46 198.79 157.31 198.87 C 161.17 198.96 164.32 199.87 164.35 198.54 C 164.38 197.22 161.28 196.08 157.42 196.00 C 153.56 195.92 150.41 196.92 150.38 198.24 Z" fill="#b2b2b2" fill-opacity="0.44" fill-rule="nonzero" group-id="27" node-id="362" stroke="none" target-height="3.951004" target-width="14.022003" target-x="150.355" target-y="195.916"></path></g><g node-id="425"><path d="M 55.92 221.34 L 55.92 217.35 L 129.65 217.35 C 129.50 218.70 129.26 220.04 128.95 221.34 L 55.92 221.34 C 55.92 221.34 55.92 221.34 55.92 221.34 Z" fill="#000000" fill-opacity="0.16" fill-rule="nonzero" group-id="28" node-id="367" stroke="none" target-height="3.994995" target-width="73.730995" target-x="55.917" target-y="217.348"></path></g><g node-id="426"><path d="M 56.00 91.54 C 56.00 91.54 39.08 116.30 41.32 155.24 L 38.38 155.24 C 38.38 155.24 38.68 103.11 50.26 91.54 L 56.00 91.54 L 56.00 91.54 Z" fill="#5a452d" fill-opacity="0.2" fill-rule="nonzero" group-id="29" node-id="372" stroke="none" target-height="63.700005" target-width="17.618004" target-x="38.385" target-y="91.54"></path></g><g node-id="427"><path d="M 39.86 157.91 L 39.86 157.92 C 38.62 145.12 40.43 105.19 54.09 91.54 L 41.41 91.54 C 28.55 114.05 29.17 155.90 29.37 157.98 L 39.86 157.91 Z" fill="#dddddd" fill-rule="nonzero" group-id="30" node-id="377" stroke="none" target-height="66.436005" target-width="25.539005" target-x="28.548" target-y="91.541"></path></g><path d="M 39.86 157.91 L 39.86 157.92 C 38.62 145.12 40.43 105.19 54.09 91.54 L 50.26 91.54 C 37.81 107.03 33.66 157.95 33.66 157.95 L 39.86 157.91 Z" fill="#e3e3e3" fill-rule="nonzero" node-id="380" stroke="none" target-height="66.410995" target-width="20.427002" target-x="33.661" target-y="91.541"></path><path d="M 116.11 129.89 L 118.91 120.87 L 117.73 130.16 Z" fill="#046782" fill-rule="nonzero" node-id="382" stroke="none" target-height="9.290001" target-width="2.793991" target-x="116.113" target-y="120.87"></path><path d="M 151.84 41.79 L 149.29 36.80 C 149.29 36.80 152.85 40.47 156.48 41.90 L 151.84 41.79 Z" fill="#e0aa5a" fill-rule="nonzero" node-id="384" stroke="none" target-height="5.091999" target-width="7.192993" target-x="149.287" target-y="36.804"></path><path d="M 127.72 137.86 C 127.72 137.86 109.62 137.86 102.80 137.86 C 95.98 137.86 102.80 126.88 102.80 126.88 L 92.44 125.09 L 89.31 137.45 C 88.79 139.63 89.25 141.95 90.56 143.72 C 91.87 145.50 93.89 146.54 96.02 146.54 L 129.03 146.54 L 129.09 146.80 L 130.43 146.54 L 127.72 137.86 Z" fill="#03617a" fill-rule="nonzero" node-id="386" stroke="none" target-height="21.708" target-width="41.635002" target-x="88.794" target-y="125.092"></path><path d="M 145.34 129.12 C 145.34 129.12 142.45 129.12 138.55 129.12 L 137.88 132.56 L 137.64 133.04 C 138.90 134.02 139.85 135.42 140.26 137.11 L 140.45 137.80 L 146.66 137.80 L 146.72 138.06 L 147.93 137.92 L 145.34 129.12 Z" fill="#03617a" fill-rule="nonzero" node-id="388" stroke="none" target-height="8.938004" target-width="10.296005" target-x="137.636" target-y="129.123"></path><g node-id="428"><path d="M 35.97 205.19 C 36.08 204.70 36.14 204.20 36.14 203.68 C 36.14 199.33 32.25 195.80 27.45 195.80 C 23.69 195.80 20.49 197.98 19.29 201.03 C 17.45 200.14 15.36 199.64 13.14 199.64 C 5.88 199.64 0.00 204.98 0.00 211.56 C 0.00 217.93 5.50 223.11 12.42 223.45 C 13.92 225.28 16.31 226.47 19.01 226.47 C 21.73 226.47 24.14 225.26 25.64 223.40 C 27.01 223.94 28.51 224.23 30.09 224.23 C 36.35 224.23 41.42 219.63 41.42 213.96 C 41.42 210.24 39.23 206.99 35.97 205.19 Z" fill="#ededed" fill-rule="nonzero" group-id="31" node-id="392" stroke="none" target-height="30.664993" target-width="41.416" target-x="0.001" target-y="195.804"></path><g node-id="429"><path d="M 35.97 205.19 C 36.08 204.70 36.14 204.20 36.14 203.68 C 36.14 200.48 34.03 197.74 31.02 196.50 C 31.31 197.29 31.48 198.14 31.48 199.02 C 31.48 199.54 31.42 200.04 31.31 200.53 C 34.57 202.33 36.76 205.58 36.76 209.30 C 36.76 214.97 31.69 219.57 25.43 219.57 C 23.85 219.57 22.34 219.27 20.98 218.74 C 19.48 220.60 17.07 221.81 14.35 221.81 C 11.65 221.81 9.26 220.62 7.76 218.79 C 5.43 218.67 3.27 218.00 1.41 216.93 C 3.48 220.62 7.60 223.21 12.42 223.45 C 13.92 225.28 16.31 226.47 19.01 226.47 C 21.73 226.47 24.14 225.26 25.64 223.40 C 27.00 223.93 28.51 224.23 30.09 224.23 C 36.35 224.23 41.42 219.63 41.42 213.96 C 41.42 210.24 39.23 206.99 35.97 205.19 Z" fill="#cccccc" fill-opacity="0.25" fill-rule="nonzero" group-id="31,32" node-id="396" stroke="none" target-height="29.964996" target-width="40.003" target-x="1.414" target-y="196.501"></path></g></g></svg>