<?xml version="1.0" standalone="no"?><!DOCTYPE svg PUBLIC "-//W3C//DTD SVG 1.1//EN" "http://www.w3.org/Graphics/SVG/1.1/DTD/svg11.dtd"><svg t="1773227611982" class="icon" viewBox="0 0 1024 1024" version="1.1" xmlns="http://www.w3.org/2000/svg" p-id="1469" xmlns:xlink="http://www.w3.org/1999/xlink" width="200" height="200"><path d="M815.232 300.458667c12.16 0 17.28 7.381333 17.28 19.541333v374.741333c0 23.168-2.261333 23.168-31.658667 23.168H119.381333c0-99.242667 54.058667-193.536 160.810667-193.536 76.032 0 115.114667 57.642667 115.114667 97.28 0 30.464 4.266667 29.738667 39.424 29.738667h95.317333c33.578667 0 33.578667-1.578667 33.578667-27.306667v-95.530666c0-23.04-0.426667-23.04 18.901333-23.04h145.621333c12.373333 0 36.48 35.242667 45.312 46.165333 8.832 10.922667 25.301333 10.624 25.770667-8.405333 0.426667-19.029333 0-223.274667 0-223.274667 0-11.648 3.84-19.541333 16-19.541333z" fill="#96DDFF" p-id="1470"></path><path d="M422.954667 651.392c-24.405333-0.256-27.648-3.114667-27.648-29.738667 0-38.4-36.693333-93.696-108.117334-97.109333l-6.997333-0.170667c-106.752 0-160.810667 94.293333-160.810667 193.536H800.853333c25.685333 0 30.677333 0 31.488-15.530666l0.128-7.68V320c0-12.16-5.12-19.541333-17.237333-19.541333-12.16 0-16 7.893333-16 19.541333l0.170667 104.490667c0.042667 53.418667 0.042667 109.226667-0.170667 118.784-0.384 16.64-13.098667 18.944-22.186667 11.946666l-3.584-3.541333c-8.789333-10.922667-32.938667-46.208-45.312-46.208v-42.666667c11.221333 0 20.053333 3.84 25.130667 6.485334 1.194667 0.64 2.261333 1.450667 3.370667 2.133333l0.085333-46.848c0-26.709333-0.085333-52.864-0.128-72.32l-0.042667-23.381333V320c0-9.088 1.194667-24.874667 11.52-39.125333 12.373333-17.109333 30.890667-23.125333 47.146667-23.125334l5.802667 0.256c13.696 1.194667 28.842667 6.698667 40.192 20.394667 11.733333 14.122667 13.909333 30.549333 13.909333 41.6v374.741333c0 5.290667 0 13.824-1.664 21.930667a52.608 52.608 0 0 1-21.674667 33.578667 61.44 61.44 0 0 1-30.037333 9.813333c-6.528 0.554667-14.293333 0.512-20.906667 0.512H119.381333a42.666667 42.666667 0 0 1-42.666666-42.666667c0-56.746667 15.36-114.645333 48.853333-159.530666 34.389333-46.08 86.997333-76.629333 154.624-76.629334 93.013333 0 149.76 66.858667 157.013333 126.976h83.754667v-80.170666c0-4.693333-0.042667-11.306667 0.426667-16.725334 0.341333-4.437333 1.450667-17.962667 11.136-30.122666a50.346667 50.346667 0 0 1 33.194666-18.133334c6.229333-0.853333 13.226667-0.768 16.810667-0.768v42.666667c-19.328 0-18.901333 0-18.901333 23.082667v95.573333l-0.085334 8.533333c-0.426667 17.493333-4.096 18.773333-33.493333 18.773334h-107.093333z m305.194666-188.586667v42.666667h-145.621333v-42.666667h145.621333z" fill="#3D3D63" p-id="1471"></path><path d="M800.853333 717.909333H119.381333c0-25.856 3.669333-51.370667 11.008-75.008 0 0 66.048 43.477333 351.061334 43.477334s351.061333-43.434667 351.061333-43.434667v51.797333c0 23.168-2.261333 23.168-31.658667 23.168z" fill="#69BAF9" p-id="1472"></path><path d="M281.770667 303.36c-15.573333 39.936-22.229333 136.32-23.637334 179.541333a134.826667 134.826667 0 0 1 58.581334 0c4.736-46.037333 16.170667-144.042667 23.296-182.656 8.96-48.298667 3.669333-68.778667-5.248-71.936-8.917333-3.157333-33.578667 25.173333-52.992 75.093334z" fill="#96DDFF" p-id="1473"></path><path d="M316.16 188.501333c6.016-2.218667 16.085333-4.565333 27.733333-1.877333l5.077334 1.450667 5.504 2.346666c12.202667 5.973333 19.754667 15.786667 24.064 24.106667 4.821333 9.344 6.912 19.242667 7.936 28.032 1.962667 17.536 0.298667 39.466667-4.522667 65.450667-6.784 36.693333-18.048 132.992-22.784 179.2a42.752 42.752 0 0 1-51.072 37.504 92.458667 92.458667 0 0 0-41.088-0.085334 42.666667 42.666667 0 0 1-51.498667-43.093333 1309.44 1309.44 0 0 1 6.698667-94.293333c3.754667-34.176 9.728-73.514667 19.797333-99.328 10.837333-27.776 23.594667-50.944 36.096-67.584 6.058667-8.106667 13.226667-16.170667 21.248-22.357334 3.968-3.072 9.642667-6.869333 16.768-9.472z m18.602667 39.850667c-8.96-3.157333-33.578667 25.173333-52.992 75.008l-2.858667 8.106667c-13.525333 43.648-19.456 130.944-20.778667 171.434666a134.826667 134.826667 0 0 1 58.581334 0c4.138667-40.234667 13.44-120.32 20.48-165.589333l2.816-17.066667c8.96-48.298667 3.669333-68.778667-5.248-71.893333z" fill="#3D3D63" p-id="1474"></path><path d="M405.290667 126.293333a21.333333 21.333333 0 0 1 4.693333 42.410667c-21.376 2.389333-34.901333 4.906667-47.274667 9.173333l-6.570666 27.306667a21.333333 21.333333 0 0 1-41.472-9.984l9.216-38.272 1.706666-4.650667a21.376 21.376 0 0 1 10.666667-9.898666c20.992-9.045333 40.192-12.885333 69.034667-16.085334z" fill="#3D3D63" p-id="1475"></path><path d="M165.205333 378.624c0-44.245333 9.002667-67.882667 23.125334-67.882667 17.792 0 32.896 41.216 32.896 74.410667 0 33.152-17.834667 59.946667-32.896 59.946667-15.061333 0-23.125333-22.186667-23.125334-66.474667z" fill="#79DEB4" p-id="1476"></path><path d="M122.538667 378.666667c0-24.149333 2.304-46.677333 8.661333-64.725334 5.290667-15.061333 20.906667-45.866667 57.130667-45.866666 21.76 0 36.693333 12.501333 44.458666 21.205333 8.234667 9.216 13.994667 20.096 18.090667 29.866667a179.2 179.2 0 0 1 13.013333 66.005333c0 23.893333-6.357333 46.336-16.64 63.957333a88.746667 88.746667 0 0 1-20.821333 24.618667c-8.533333 6.826667-21.632 14.08-38.101333 14.08-34.986667 0-51.413333-27.946667-57.472-45.141333-6.314667-18.005333-8.32-40.405333-8.32-64z m43.008 15.530666c1.749333 33.92 9.6 50.901333 22.784 50.901334 14.08 0 30.72-23.552 32.682666-53.845334l0.213334-6.101333c0-33.194667-15.104-74.410667-32.896-74.410667-14.08 0-23.125333 23.637333-23.125334 67.925334l0.341334 15.530666z" fill="#3D3D63" p-id="1477"></path><path d="M165.205333 378.624s9.002667 40.064 23.125334 40.064c17.792 0 32.896-33.536 32.896-33.536 0 33.152-17.834667 59.946667-32.896 59.946667-15.061333 0-23.125333-22.186667-23.125334-66.474667z" fill="#62CCA1" p-id="1478"></path><path d="M598.229333 368.896c-34.56 0-30.72 35.114667-30.72 42.88h141.141334c0-17.792 0-42.88-27.904-42.88h-82.517334z" fill="#79DEB4" p-id="1479"></path><path d="M680.746667 326.229333c13.44 0 27.477333 3.072 39.893333 11.392 12.501333 8.362667 19.84 19.626667 24.021333 29.866667 7.253333 17.749333 6.656 37.546667 6.656 44.330667a42.666667 42.666667 0 0 1-42.666666 42.666666h-141.141334a42.666667 42.666667 0 0 1-42.666666-42.666666c0 1.194667-1.621333-19.84 4.693333-38.272 3.669333-10.538667 10.581333-23.210667 23.552-33.024 13.226667-10.069333 29.013333-14.293333 45.141333-14.293334v42.666667c-34.56 0-30.72 35.114667-30.72 42.922667h141.141334c0-17.792 0-42.922667-27.904-42.922667v-42.666667z m0 0v42.666667H598.186667v-42.666667h82.517333z" fill="#3D3D63" p-id="1480"></path><path d="M875.178667 484.949333v-112.64c20.650667 0 29.354667 21.12 29.354666 55.466667 0 34.432-6.528 57.173333-29.354666 57.173333z" fill="#79DEB4" p-id="1481"></path><path d="M875.178667 329.642667c12.8 0 25.728 3.413333 37.205333 11.136 11.136 7.552 18.602667 17.621333 23.466667 27.392 9.130667 18.389333 11.349333 40.192 11.349333 59.648 0 18.261333-1.450667 40.277333-9.898667 58.965333-4.522667 10.112-11.818667 20.906667-23.466666 29.056a66.858667 66.858667 0 0 1-38.656 11.776 42.666667 42.666667 0 0 1-42.666667-42.666667v-112.64a42.666667 42.666667 0 0 1 42.666667-42.666666z m4.053333 155.050666c19.584-2.645333 25.301333-24.618667 25.301333-56.874666 0-34.389333-8.704-55.509333-29.354666-55.509334v112.64l4.053333-0.256z" fill="#3D3D63" p-id="1482"></path><path d="M329.301333 761.130667a68.053333 68.053333 0 0 1-136.106666 0h136.106666z" fill="#FFDEAD" p-id="1483"></path><path d="M261.248 718.464v42.666667H193.194667a68.053333 68.053333 0 0 0 136.106666 0H261.290667v-42.666667h110.762666v42.666667a110.72 110.72 0 0 1-221.44 0v-42.666667h110.677334z" fill="#3D3D63" p-id="1484"></path><path d="M329.301333 761.130667a68.053333 68.053333 0 0 1-136.106666 0s12.202667 42.410667 68.053333 42.410666c55.893333 0 68.053333-42.410667 68.053333-42.410666z" fill="#FFC670" p-id="1485"></path><path d="M749.696 761.130667a68.053333 68.053333 0 1 1-136.106667 0h136.106667z" fill="#FFDEAD" p-id="1486"></path><path d="M681.642667 718.464v42.666667H613.546667a68.053333 68.053333 0 0 0 136.106666 0h-68.053333v-42.666667h110.72v42.666667a110.72 110.72 0 0 1-221.44 0v-42.666667h110.72z" fill="#3D3D63" p-id="1487"></path><path d="M749.696 761.130667a68.053333 68.053333 0 0 1-136.106667 0s12.16 42.410667 68.053334 42.410666 68.053333-42.410667 68.053333-42.410666z" fill="#FFC670" p-id="1488"></path><path d="M206.293333 558.165333a21.333333 21.333333 0 0 1 19.541334 37.930667c-7.253333 3.712-15.36 9.941333-22.186667 17.450667-6.997333 7.68-11.178667 15.104-12.586667 20.736a21.333333 21.333333 0 0 1-41.386666-10.368c3.669333-14.805333 12.629333-28.373333 22.4-39.082667 9.898667-10.88 22.016-20.394667 34.218666-26.666667z" fill="#FFFFFF" p-id="1489"></path><path d="M705.365333 546.645333a21.333333 21.333333 0 0 1 0 42.666667H657.92a21.333333 21.333333 0 1 1 0-42.666667h47.445333zM728.32 601.386667a21.333333 21.333333 0 0 1 0 42.666666h-93.354667a21.333333 21.333333 0 1 1 0-42.666666h93.354667zM757.376 654.464a21.333333 21.333333 0 0 1 0 42.666667h-151.466667a21.333333 21.333333 0 1 1 0-42.666667h151.466667z" fill="#3D3D63" p-id="1490"></path></svg>